# xmcd CD database file
# Copyright (C) 1997 Ti Kan
# 
# Track frame offsets:
#     182
#     13020
#     25940
#     39930
#     53472
#     66720
#     80517
#     92412
#     104742
#     116325
#     128777
#     139930
#     153220
#     165300
#     178517
#     188987
# 
# Disc length: 2659 seconds
# 
# Revision: 1
# Processed by: cddbd v1.4b41PL1 Copyright (c) Steve Scherf et al.
# Submitted via: DiscPlay 4.0.3
# 
DISCID=ca0a6110
DTITLE=Sons Of The Pioneers - Sons Of The Pioneers
DYEAR=1900
DGENRE=
TTITLE0=Way Out There
TTITLE1=Tumbling Tumbleweeds
TTITLE2=There's A Round-Up In The Sky
TTITLE3=When Our Old Age Pension Check Comes To Our Door
TTITLE4=Echoes From The Hills
TTITLE5=The Hills Of Old Wyomin'
TTITLE6=Ride Ranger Ride
TTITLE7=One More Ride
TTITLE8=Rye Whiskey
TTITLE9=Cool Water
TTITLE10=When The Moon Comes Over Sun Valley
TTITLE11=Private Buckaroo
TTITLE12=I Hang My Head and Cry
TTITLE13=Let Me Keep My Memories
TTITLE14=Sierra Nevada
TTITLE15=Somebody Bigger Than You And I
EXTD=
EXTT0=
EXTT1=
EXTT2=
EXTT3=
EXTT4=
EXTT5=
EXTT6=
EXTT7=
EXTT8=
EXTT9=
EXTT10=
EXTT11=
EXTT12=
EXTT13=
EXTT14=
EXTT15=
PLAYORDER=
